<svg width="596" height="150" viewBox="0 0 596 150" fill="none" xmlns="http://www.w3.org/2000/svg">
<g clip-path="url(#clip0_2160_933)">
<path d="M25.2398 57.59C27.8898 52.44 31.4998 48.47 36.0598 45.7C40.6198 42.92 45.7098 41.54 51.3398 41.54C56.2598 41.54 60.5598 42.53 64.2498 44.51C67.9398 46.49 70.8898 48.99 73.1098 52V42.6H89.8798V108.5H73.1098V98.86C70.9698 101.95 68.0098 104.51 64.2498 106.53C60.4798 108.55 56.1398 109.56 51.2298 109.56C45.6798 109.56 40.6198 108.13 36.0698 105.28C31.5098 102.43 27.8998 98.4 25.2498 93.2C22.5898 88.01 21.2598 82.04 21.2598 75.3C21.2598 68.56 22.5898 62.73 25.2498 57.58L25.2398 57.59ZM70.7298 65.14C69.1398 62.24 66.9998 60.02 64.3098 58.48C61.6098 56.93 58.7198 56.16 55.6298 56.16C52.5398 56.16 49.6798 56.92 47.0598 58.42C44.4398 59.93 42.3198 62.13 40.6998 65.02C39.0698 67.92 38.2598 71.34 38.2598 75.31C38.2598 79.28 39.0698 82.74 40.6998 85.72C42.3198 88.69 44.4598 90.97 47.1198 92.56C49.7698 94.15 52.6098 94.94 55.6298 94.94C58.6498 94.94 61.6098 94.17 64.3098 92.62C66.9998 91.08 69.1498 88.86 70.7298 85.96C72.3098 83.07 73.1098 79.6 73.1098 75.55C73.1098 71.5 72.3098 68.04 70.7298 65.14Z" fill="#122126"/>
<path d="M178.8 106.65C174.56 104.71 171.19 102.07 168.69 98.74C166.19 95.41 164.83 91.72 164.59 87.68H181.36C181.67 90.45 182.9 92.7 185.05 94.4C187.19 96.11 189.92 96.96 193.25 96.96C196.58 96.96 198.9 96.31 200.68 95C202.47 93.69 203.36 91.93 203.36 89.7C203.36 87.47 202.27 85.94 200.09 84.83C197.91 83.72 194.4 82.57 189.56 81.38C184.72 80.19 180.76 78.98 177.67 77.75C174.58 76.52 171.92 74.6 169.7 71.99C167.48 69.37 166.37 65.92 166.37 61.64C166.37 57.91 167.38 54.52 169.4 51.47C171.42 48.42 174.39 46 178.32 44.22C182.24 42.43 186.86 41.54 192.18 41.54C200.03 41.54 206.29 43.5 210.97 47.43C215.65 51.35 218.23 56.65 218.7 63.31H202.76C202.52 60.53 201.43 58.31 199.49 56.65C197.55 54.99 194.95 54.15 191.7 54.15C188.68 54.15 186.37 54.77 184.74 56C183.11 57.23 182.3 58.91 182.3 61.05C182.3 63.19 183.41 64.96 185.63 66.1C187.85 67.25 191.3 68.42 195.98 69.61C200.74 70.8 204.67 72.03 207.75 73.3C210.84 74.56 213.5 76.49 215.72 79.06C217.94 81.64 219.05 85.11 219.05 89.47C219.05 93.27 218.02 96.71 215.96 99.76C213.9 102.81 210.92 105.21 207.04 106.95C203.15 108.7 198.55 109.57 193.24 109.57C187.93 109.57 183.03 108.6 178.79 106.66L178.8 106.65Z" fill="#122126"/>
<path d="M366.72 75.3098C366.72 80.1698 365.85 84.7098 364.11 88.8998C362.37 93.0898 359.99 96.7198 356.99 99.7798C353.99 102.84 350.48 105.25 346.44 107.01C342.41 108.78 338.08 109.66 333.46 109.66C328.84 109.66 324.58 108.78 320.54 107.01C316.51 105.24 312.98 102.84 309.96 99.7798C306.94 96.7198 304.56 93.0898 302.82 88.8998C301.08 84.6998 300.21 80.1698 300.21 75.3098C300.21 70.4498 301.08 65.7798 302.82 61.5698C304.56 57.3498 306.95 53.7198 309.96 50.6598C312.98 47.5998 316.51 45.1998 320.54 43.4498C324.58 41.7098 328.88 40.8398 333.46 40.8398C338.04 40.8398 342.41 41.6598 346.44 43.2998C350.48 44.9398 353.99 47.2698 356.99 50.2898C359.99 53.3198 362.36 56.9398 364.11 61.1798C365.85 65.4098 366.72 70.1298 366.72 75.3098ZM350 75.3098C350 72.6298 349.56 70.2098 348.69 68.0398C347.82 65.8798 346.63 64.0098 345.13 62.4498C343.63 60.8898 341.88 59.6998 339.87 58.8598C337.87 58.0298 335.73 57.6198 333.46 57.6198C331.19 57.6198 329.05 58.0298 327.05 58.8598C325.04 59.6898 323.3 60.8898 321.82 62.4498C320.34 64.0198 319.18 65.8798 318.32 68.0398C317.47 70.2098 317.05 72.6298 317.05 75.3098C317.05 77.8198 317.48 80.1598 318.32 82.2998C319.18 84.4498 320.34 86.3198 321.82 87.8898C323.3 89.4798 325.04 90.7198 327.05 91.6298C329.05 92.5498 331.19 92.9998 333.46 92.9998C335.73 92.9998 337.87 92.5798 339.87 91.7298C341.88 90.8798 343.63 89.6798 345.13 88.1398C346.63 86.5998 347.81 84.7298 348.69 82.5498C349.56 80.3598 350 77.9498 350 75.3198V75.3098Z" fill="#122126"/>
<path d="M389.55 108.449H372.95V43.3193H376.96L382.43 51.0393C385.11 48.6093 388.15 46.7293 391.55 45.4093C394.96 44.0893 398.48 43.4393 402.13 43.4393H416.79V59.9793H402.13C400.39 59.9793 398.74 60.2993 397.2 60.9493C395.66 61.5993 394.32 62.4893 393.19 63.6293C392.05 64.7693 391.16 66.0993 390.51 67.6393C389.86 69.1793 389.54 70.8193 389.54 72.5593V108.439L389.55 108.449Z" fill="#122126"/>
<path d="M460.24 108.449C456.22 108.449 452.46 107.679 448.93 106.169C445.41 104.649 442.31 102.559 439.66 99.8992C437 97.2492 434.92 94.1592 433.39 90.6292C431.87 87.0992 431.11 83.3292 431.11 79.3192V59.9792H423.02V43.4392H431.11V17.4092H447.65V43.4392H472.82V59.9792H447.65V79.3192C447.65 81.0592 447.97 82.6892 448.62 84.2192C449.27 85.7492 450.16 87.0692 451.3 88.1992C452.44 89.3392 453.77 90.2392 455.31 90.8992C456.85 91.5792 458.49 91.9092 460.24 91.9092H472.82V108.449H460.24Z" fill="#122126"/>
<path d="M501.38 25.6196C501.38 27.1596 501.09 28.5996 500.5 29.9396C499.91 31.2796 499.11 32.4396 498.1 33.4396C497.09 34.4296 495.9 35.2196 494.54 35.8096C493.18 36.3996 491.73 36.6896 490.19 36.6896C488.65 36.6896 487.2 36.3896 485.84 35.8096C484.48 35.2196 483.3 34.4296 482.31 33.4396C481.31 32.4396 480.53 31.2796 479.94 29.9396C479.35 28.5996 479.06 27.1596 479.06 25.6196C479.06 24.0796 479.36 22.6896 479.94 21.3296C480.53 19.9796 481.32 18.7996 482.31 17.8096C483.3 16.8196 484.48 16.0296 485.84 15.4396C487.2 14.8496 488.65 14.5596 490.19 14.5596C491.73 14.5596 493.18 14.8496 494.54 15.4396C495.9 16.0296 497.08 16.8196 498.1 17.8096C499.11 18.7996 499.92 19.9796 500.5 21.3296C501.09 22.6896 501.38 24.1196 501.38 25.6196ZM498.52 108.45H481.8V43.3196H498.52V108.45Z" fill="#122126"/>
<path d="M574.139 108.45H570.119L563.679 99.5098C562.089 100.93 560.419 102.26 558.659 103.5C556.889 104.73 555.039 105.81 553.089 106.72C551.139 107.64 549.149 108.36 547.099 108.88C545.049 109.41 542.969 109.67 540.869 109.67C536.289 109.67 531.979 108.9 527.949 107.35C523.919 105.81 520.389 103.58 517.369 100.63C514.349 97.6898 511.969 94.0998 510.229 89.8398C508.489 85.5898 507.609 80.7398 507.609 75.3098C507.609 70.2398 508.479 65.5898 510.229 61.3598C511.969 57.1298 514.359 53.4898 517.369 50.4398C520.389 47.3998 523.919 45.0398 527.949 43.3598C531.989 41.6798 536.289 40.8398 540.869 40.8398C542.979 40.8398 545.059 41.0998 547.139 41.6298C549.199 42.1598 551.209 42.8898 553.159 43.8198C555.109 44.7498 556.959 45.8498 558.719 47.0998C560.489 48.3598 562.129 49.7098 563.679 51.1698L570.119 43.4498H574.139V108.46V108.45ZM557.409 75.3098C557.409 73.0398 556.969 70.8398 556.099 68.7198C555.229 66.5798 554.039 64.6998 552.539 63.0598C551.039 61.4198 549.289 60.0998 547.279 59.1098C545.279 58.1198 543.139 57.6198 540.869 57.6198C538.599 57.6198 536.459 57.9998 534.459 58.7698C532.449 59.5398 530.709 60.6798 529.229 62.1798C527.749 63.6798 526.579 65.5398 525.729 67.7498C524.869 69.9598 524.449 72.4798 524.449 75.3198C524.449 78.1598 524.869 80.6798 525.729 82.8898C526.579 85.1098 527.739 86.9598 529.229 88.4598C530.709 89.9598 532.449 91.0998 534.459 91.8698C536.459 92.6398 538.599 93.0198 540.869 93.0198C543.139 93.0198 545.279 92.5198 547.279 91.5298C549.289 90.5398 551.039 89.2098 552.539 87.5798C554.039 85.9498 555.219 84.0598 556.099 81.9198C556.969 79.7898 557.409 77.5998 557.409 75.3298V75.3098Z" fill="#122126"/>
<path d="M291.34 61.2097C289.63 57.0097 287.24 53.3697 284.19 50.3697C281.19 47.3697 277.69 45.0697 273.63 43.4097C269.62 41.7497 265.28 40.9697 260.72 40.9697C258.6 40.9697 256.52 41.1997 254.45 41.7497C252.37 42.2597 250.39 42.9997 248.45 43.9197C246.56 44.7997 244.67 45.8997 242.92 47.1497C241.12 48.3997 239.46 49.7297 237.98 51.1597L231.34 43.3197H227.33V133.26H244.07V104.06C245.04 104.66 246.05 105.17 247.11 105.72C247.39 105.9 247.71 106.04 247.99 106.18C249.33 106.87 250.71 107.52 252.1 108.07C253.53 108.58 254.96 109.04 256.39 109.36C257.82 109.68 259.25 109.82 260.73 109.82C265.3 109.82 269.63 109.04 273.64 107.47C277.7 105.9 281.2 103.6 284.2 100.64C287.24 97.6397 289.64 93.9997 291.35 89.7497C293.1 85.4597 293.98 80.6597 293.98 75.3097C293.98 69.9597 293.1 65.4397 291.35 61.1997L291.34 61.2097ZM276.02 82.5197C275.14 84.7297 273.94 86.5797 272.42 88.1497C270.94 89.6697 269.19 90.8697 267.16 91.7497C265.13 92.5797 262.96 92.9997 260.7 92.9997C258.44 92.9997 256.27 92.5797 254.29 91.7497C252.26 90.8697 250.51 89.6697 249.03 88.1497C247.51 86.5797 246.35 84.7397 245.48 82.5197C244.6 80.3497 244.14 77.9497 244.14 75.3197C244.14 72.5497 244.6 70.0597 245.48 67.8897C246.36 65.6797 247.51 63.8297 249.03 62.3097C250.51 60.7897 252.26 59.6297 254.29 58.7997C256.27 58.0197 258.44 57.5997 260.7 57.5997C262.96 57.5997 265.13 58.0197 267.16 58.7997C269.19 59.6297 270.94 60.7797 272.42 62.3097C273.94 63.8297 275.14 65.6797 276.02 67.8897C276.85 70.0597 277.31 72.5497 277.31 75.3197C277.31 78.0897 276.85 80.3497 276.02 82.5197Z" fill="#122126"/>
<path d="M244 104.109C244.09 104.209 244.06 104.359 244.06 104.679V130.359C244.06 130.509 244.06 133.249 244.06 133.249H227.32C227.32 133.249 227.32 128.579 227.32 128.319V92.7695C227.32 92.0195 227.08 90.6095 227.39 89.9795C227.35 90.0495 228.29 91.4695 228.37 91.6095C228.73 92.2395 229.12 92.8495 229.54 93.4495C230.39 94.6695 231.33 95.8295 232.37 96.8995C235.24 99.8795 238.78 102.229 242.67 103.669C242.95 103.769 243.21 103.809 243.5 103.889C243.79 103.969 243.94 104.019 244.01 104.099L244 104.109Z" fill="#720E21"/>
<path d="M247.1 105.72C246.04 105.17 245.02 104.66 244.06 104.06C245.26 104.43 246.27 104.98 247.1 105.72Z" fill="#010101"/>
<path d="M114.24 109.06H96.5996V40.9999H100.86L106.68 47.6099C109.52 45.0699 112.74 43.1099 116.34 41.7299C119.94 40.3499 123.7 39.6699 127.62 39.6699C131.84 39.6699 135.83 40.4699 139.58 42.0499C143.33 43.6399 146.6 45.8199 149.4 48.5899C152.2 51.3699 154.41 54.6099 156.03 58.3199C157.65 62.0199 158.45 65.9799 158.45 70.1699V109.06H140.81V70.1699C140.81 68.3899 140.46 66.6999 139.78 65.1199C139.09 63.5299 138.14 62.1399 136.94 60.9599C135.73 59.7699 134.33 58.8399 132.74 58.1599C131.15 57.4799 129.44 57.1399 127.64 57.1399C125.84 57.1399 124.04 57.4799 122.4 58.1599C120.76 58.8399 119.34 59.7699 118.13 60.9599C116.92 62.1399 115.97 63.5299 115.29 65.1199C114.6 66.7099 114.26 68.3899 114.26 70.1699V109.06H114.24Z" fill="#122126"/>
<path d="M286.257 131.289H283.133V143.27H281.411V131.289H279.541V129.838H281.411V128.903C281.411 127.444 281.78 126.369 282.518 125.681C283.272 124.992 284.486 124.647 286.159 124.647V126.123C285.043 126.123 284.256 126.337 283.797 126.763C283.354 127.189 283.133 127.903 283.133 128.903V129.838H286.257V131.289ZM290.69 132.224C291.067 131.388 291.641 130.74 292.412 130.281C293.199 129.822 294.158 129.592 295.29 129.592V131.388H294.823C293.576 131.388 292.576 131.724 291.821 132.396C291.067 133.069 290.69 134.192 290.69 135.767V143.27H288.968V129.838H290.69V132.224ZM303.76 143.466C302.497 143.466 301.357 143.188 300.341 142.63C299.34 142.056 298.545 141.252 297.954 140.219C297.38 139.17 297.093 137.948 297.093 136.554C297.093 135.16 297.389 133.946 297.979 132.913C298.569 131.863 299.373 131.06 300.39 130.502C301.407 129.928 302.546 129.641 303.809 129.641C305.072 129.641 306.212 129.928 307.229 130.502C308.262 131.06 309.065 131.863 309.639 132.913C310.23 133.946 310.525 135.16 310.525 136.554C310.525 137.931 310.23 139.145 309.639 140.195C309.049 141.244 308.237 142.056 307.204 142.63C306.171 143.188 305.023 143.466 303.76 143.466ZM303.76 141.966C304.646 141.966 305.466 141.769 306.22 141.375C306.974 140.965 307.581 140.359 308.04 139.555C308.516 138.735 308.754 137.735 308.754 136.554C308.754 135.373 308.524 134.381 308.065 133.577C307.606 132.757 306.999 132.15 306.245 131.757C305.49 131.347 304.67 131.142 303.785 131.142C302.899 131.142 302.079 131.347 301.325 131.757C300.57 132.15 299.963 132.757 299.504 133.577C299.061 134.381 298.84 135.373 298.84 136.554C298.84 137.735 299.061 138.735 299.504 139.555C299.963 140.359 300.562 140.965 301.3 141.375C302.054 141.769 302.874 141.966 303.76 141.966ZM329.654 129.592C331.228 129.592 332.508 130.092 333.492 131.093C334.492 132.077 334.992 133.512 334.992 135.398V143.27H333.295V135.594C333.295 134.135 332.942 133.02 332.237 132.249C331.532 131.478 330.572 131.093 329.359 131.093C328.096 131.093 327.087 131.511 326.333 132.347C325.579 133.184 325.201 134.397 325.201 135.988V143.27H323.504V135.594C323.504 134.135 323.151 133.02 322.446 132.249C321.741 131.478 320.773 131.093 319.543 131.093C318.281 131.093 317.272 131.511 316.518 132.347C315.763 133.184 315.386 134.397 315.386 135.988V143.27H313.664V129.838H315.386V132.15C315.812 131.314 316.419 130.683 317.206 130.256C317.994 129.813 318.871 129.592 319.839 129.592C321.003 129.592 322.02 129.871 322.889 130.428C323.775 130.986 324.414 131.806 324.808 132.888C325.169 131.822 325.784 131.011 326.653 130.453C327.538 129.879 328.539 129.592 329.654 129.592ZM347.806 131.289V139.629C347.806 140.449 347.961 141.015 348.273 141.326C348.585 141.638 349.134 141.794 349.921 141.794H351.496V143.27H349.651C348.437 143.27 347.535 142.991 346.945 142.433C346.354 141.859 346.059 140.924 346.059 139.629V131.289H344.189V129.838H346.059V126.468H347.806V129.838H351.496V131.289H347.806ZM360.732 129.592C361.748 129.592 362.659 129.805 363.462 130.232C364.282 130.658 364.922 131.314 365.381 132.2C365.857 133.069 366.094 134.135 366.094 135.398V143.27H364.397V135.594C364.397 134.135 364.028 133.02 363.29 132.249C362.568 131.478 361.576 131.093 360.313 131.093C359.018 131.093 357.985 131.503 357.214 132.323C356.443 133.143 356.058 134.348 356.058 135.939V143.27H354.336V125.066H356.058V132.126C356.484 131.322 357.107 130.699 357.927 130.256C358.764 129.813 359.698 129.592 360.732 129.592ZM382.055 135.865C382.055 136.455 382.039 136.906 382.006 137.218H370.862C370.911 138.235 371.157 139.104 371.6 139.826C372.043 140.547 372.625 141.097 373.347 141.474C374.068 141.835 374.856 142.015 375.708 142.015C376.824 142.015 377.758 141.744 378.513 141.203C379.284 140.662 379.792 139.932 380.038 139.014H381.858C381.53 140.326 380.825 141.4 379.743 142.236C378.677 143.056 377.332 143.466 375.708 143.466C374.446 143.466 373.314 143.188 372.314 142.63C371.313 142.056 370.526 141.252 369.952 140.219C369.394 139.17 369.116 137.948 369.116 136.554C369.116 135.16 369.394 133.938 369.952 132.888C370.51 131.839 371.289 131.035 372.289 130.478C373.289 129.92 374.429 129.641 375.708 129.641C376.988 129.641 378.103 129.92 379.054 130.478C380.022 131.035 380.76 131.79 381.268 132.741C381.793 133.676 382.055 134.717 382.055 135.865ZM380.309 135.816C380.325 134.815 380.12 133.963 379.694 133.257C379.284 132.552 378.718 132.019 377.996 131.658C377.275 131.298 376.487 131.117 375.635 131.117C374.355 131.117 373.265 131.527 372.363 132.347C371.461 133.167 370.961 134.323 370.862 135.816H380.309ZM398.352 129.592C399.369 129.592 400.279 129.805 401.083 130.232C401.903 130.658 402.542 131.314 403.002 132.2C403.477 133.069 403.715 134.135 403.715 135.398V143.27H402.018V135.594C402.018 134.135 401.649 133.02 400.911 132.249C400.189 131.478 399.197 131.093 397.934 131.093C396.638 131.093 395.605 131.503 394.834 132.323C394.064 133.143 393.678 134.348 393.678 135.939V143.27H391.956V125.066H393.678V132.126C394.105 131.322 394.728 130.699 395.548 130.256C396.384 129.813 397.319 129.592 398.352 129.592ZM413.403 143.466C412.14 143.466 411 143.188 409.983 142.63C408.983 142.056 408.188 141.252 407.597 140.219C407.023 139.17 406.736 137.948 406.736 136.554C406.736 135.16 407.031 133.946 407.622 132.913C408.212 131.863 409.016 131.06 410.033 130.502C411.049 129.928 412.189 129.641 413.452 129.641C414.715 129.641 415.855 129.928 416.871 130.502C417.905 131.06 418.708 131.863 419.282 132.913C419.873 133.946 420.168 135.16 420.168 136.554C420.168 137.931 419.873 139.145 419.282 140.195C418.692 141.244 417.88 142.056 416.847 142.63C415.814 143.188 414.666 143.466 413.403 143.466ZM413.403 141.966C414.288 141.966 415.108 141.769 415.863 141.375C416.617 140.965 417.224 140.359 417.683 139.555C418.159 138.735 418.397 137.735 418.397 136.554C418.397 135.373 418.167 134.381 417.708 133.577C417.249 132.757 416.642 132.15 415.887 131.757C415.133 131.347 414.313 131.142 413.427 131.142C412.542 131.142 411.722 131.347 410.967 131.757C410.213 132.15 409.606 132.757 409.147 133.577C408.704 134.381 408.483 135.373 408.483 136.554C408.483 137.735 408.704 138.735 409.147 139.555C409.606 140.359 410.205 140.965 410.943 141.375C411.697 141.769 412.517 141.966 413.403 141.966ZM434.943 129.838V143.27H433.221V140.908C432.827 141.744 432.22 142.384 431.4 142.827C430.58 143.27 429.662 143.491 428.645 143.491C427.038 143.491 425.726 142.999 424.709 142.015C423.692 141.015 423.184 139.571 423.184 137.685V129.838H424.881V137.489C424.881 138.948 425.242 140.063 425.964 140.834C426.702 141.605 427.702 141.99 428.965 141.99C430.26 141.99 431.294 141.58 432.064 140.76C432.835 139.94 433.221 138.735 433.221 137.144V129.838H434.943ZM443.499 143.466C441.957 143.466 440.694 143.114 439.71 142.409C438.743 141.687 438.202 140.711 438.087 139.481H439.858C439.94 140.236 440.293 140.851 440.916 141.326C441.555 141.785 442.408 142.015 443.474 142.015C444.409 142.015 445.139 141.794 445.664 141.351C446.205 140.908 446.475 140.359 446.475 139.703C446.475 139.243 446.328 138.866 446.033 138.571C445.737 138.276 445.36 138.046 444.901 137.882C444.458 137.702 443.851 137.513 443.081 137.316C442.08 137.054 441.268 136.792 440.645 136.529C440.022 136.267 439.489 135.881 439.046 135.373C438.62 134.848 438.407 134.151 438.407 133.282C438.407 132.626 438.603 132.019 438.997 131.462C439.391 130.904 439.948 130.461 440.67 130.133C441.391 129.805 442.211 129.641 443.13 129.641C444.573 129.641 445.737 130.01 446.623 130.748C447.509 131.47 447.984 132.47 448.05 133.749H446.328C446.279 132.962 445.967 132.331 445.393 131.855C444.835 131.363 444.065 131.117 443.081 131.117C442.211 131.117 441.506 131.322 440.965 131.732C440.424 132.142 440.153 132.651 440.153 133.257C440.153 133.782 440.309 134.217 440.621 134.561C440.949 134.889 441.35 135.152 441.826 135.348C442.302 135.529 442.941 135.734 443.745 135.963C444.712 136.226 445.483 136.48 446.057 136.726C446.631 136.972 447.123 137.333 447.533 137.808C447.943 138.284 448.156 138.915 448.173 139.703C448.173 140.424 447.976 141.072 447.582 141.646C447.189 142.204 446.639 142.646 445.934 142.974C445.229 143.302 444.417 143.466 443.499 143.466ZM463.567 135.865C463.567 136.455 463.55 136.906 463.517 137.218H452.374C452.423 138.235 452.669 139.104 453.112 139.826C453.554 140.547 454.137 141.097 454.858 141.474C455.58 141.835 456.367 142.015 457.22 142.015C458.335 142.015 459.27 141.744 460.024 141.203C460.795 140.662 461.303 139.932 461.549 139.014H463.37C463.042 140.326 462.337 141.4 461.254 142.236C460.188 143.056 458.843 143.466 457.22 143.466C455.957 143.466 454.825 143.188 453.825 142.63C452.825 142.056 452.037 141.252 451.463 140.219C450.906 139.17 450.627 137.948 450.627 136.554C450.627 135.16 450.906 133.938 451.463 132.888C452.021 131.839 452.8 131.035 453.8 130.478C454.801 129.92 455.941 129.641 457.22 129.641C458.499 129.641 459.614 129.92 460.565 130.478C461.533 131.035 462.271 131.79 462.779 132.741C463.304 133.676 463.567 134.717 463.567 135.865ZM461.82 135.816C461.836 134.815 461.631 133.963 461.205 133.257C460.795 132.552 460.229 132.019 459.508 131.658C458.786 131.298 457.999 131.117 457.146 131.117C455.867 131.117 454.776 131.527 453.874 132.347C452.972 133.167 452.472 134.323 452.374 135.816H461.82ZM479.347 143.466C478.084 143.466 476.945 143.188 475.928 142.63C474.927 142.056 474.132 141.252 473.542 140.219C472.968 139.17 472.681 137.948 472.681 136.554C472.681 135.16 472.976 133.946 473.566 132.913C474.157 131.863 474.96 131.06 475.977 130.502C476.994 129.928 478.134 129.641 479.396 129.641C480.659 129.641 481.799 129.928 482.816 130.502C483.849 131.06 484.653 131.863 485.227 132.913C485.817 133.946 486.112 135.16 486.112 136.554C486.112 137.931 485.817 139.145 485.227 140.195C484.636 141.244 483.824 142.056 482.791 142.63C481.758 143.188 480.61 143.466 479.347 143.466ZM479.347 141.966C480.233 141.966 481.053 141.769 481.807 141.375C482.562 140.965 483.168 140.359 483.628 139.555C484.103 138.735 484.341 137.735 484.341 136.554C484.341 135.373 484.111 134.381 483.652 133.577C483.193 132.757 482.586 132.15 481.832 131.757C481.077 131.347 480.257 131.142 479.372 131.142C478.486 131.142 477.666 131.347 476.912 131.757C476.157 132.15 475.551 132.757 475.091 133.577C474.649 134.381 474.427 135.373 474.427 136.554C474.427 137.735 474.649 138.735 475.091 139.555C475.551 140.359 476.149 140.965 476.887 141.375C477.642 141.769 478.462 141.966 479.347 141.966ZM494.54 131.289H491.416V143.27H489.694V131.289H487.824V129.838H489.694V128.903C489.694 127.444 490.063 126.369 490.801 125.681C491.555 124.992 492.769 124.647 494.442 124.647V126.123C493.327 126.123 492.539 126.337 492.08 126.763C491.637 127.189 491.416 127.903 491.416 128.903V129.838H494.54V131.289Z" fill="#A88B58"/>
<path d="M504.51 126.82C504.33 126.65 504.24 126.42 504.24 126.12C504.24 125.84 504.33 125.61 504.51 125.43C504.69 125.25 504.91 125.16 505.17 125.16C505.43 125.16 505.65 125.25 505.83 125.43C506.01 125.61 506.1 125.84 506.1 126.12C506.1 126.41 506.01 126.65 505.83 126.82C505.65 126.99 505.43 127.08 505.17 127.08C504.91 127.08 504.69 126.99 504.51 126.82ZM505.71 131.54V143.37H504.61V130.04L505.71 131.54Z" fill="#720E21"/>
<path d="M518.37 131.24C519.37 132.21 519.87 133.66 519.87 135.57V143.37H518.79V135.64C518.79 134.05 518.39 132.84 517.59 132C516.79 131.16 515.7 130.74 514.33 130.74C512.96 130.74 511.74 131.2 510.88 132.11C510.02 133.03 509.59 134.38 509.59 136.18V143.37H508.49V130.04L509.59 131.34V132.86C509.97 131.86 510.59 131.1 511.47 130.57C512.35 130.04 513.36 129.77 514.5 129.77C516.09 129.77 517.38 130.26 518.38 131.23L518.37 131.24Z" fill="#720E21"/>
<path d="M528.671 131.03H525.211V143.37H524.111V131.03H522.101V130.05H524.111V129.12C524.111 127.73 524.461 126.69 525.171 126.02C525.871 125.34 527.031 125 528.631 125V125.98C527.351 125.98 526.471 126.23 525.971 126.72C525.471 127.21 525.221 128.01 525.221 129.12V130.05H528.021L528.681 131.03H528.671Z" fill="#720E21"/>
<path d="M546.631 133.06C547.181 132.03 547.941 131.24 548.911 130.69C549.881 130.14 551.001 129.87 552.261 129.87C553.931 129.87 555.301 130.29 556.371 131.12C557.441 131.95 558.111 133.08 558.371 134.48H557.221C557.011 133.34 556.461 132.44 555.561 131.78C554.671 131.13 553.571 130.8 552.261 130.8C551.281 130.8 550.391 131.02 549.591 131.45C548.791 131.88 548.151 132.55 547.661 133.44C547.181 134.33 546.941 135.42 546.941 136.69C546.941 137.96 547.181 139.07 547.661 139.95C548.141 140.83 548.781 141.5 549.591 141.94C550.391 142.38 551.281 142.6 552.261 142.6C553.571 142.6 554.671 142.27 555.561 141.62C556.451 140.97 557.001 140.07 557.221 138.92H558.371C558.111 140.31 557.441 141.43 556.361 142.28C555.281 143.13 553.911 143.56 552.261 143.56C551.001 143.56 549.881 143.28 548.911 142.73C547.941 142.17 547.181 141.38 546.631 140.34C546.081 139.3 545.811 138.09 545.811 136.7C545.811 135.31 546.081 134.1 546.631 133.07V133.06Z" fill="#720E21"/>
<path d="M561.501 133.09C562.051 132.06 562.811 131.27 563.781 130.71C564.751 130.15 565.861 129.88 567.111 129.88C568.521 129.88 569.711 130.22 570.691 130.91C571.671 131.6 572.361 132.47 572.751 133.54V130.06L573.851 131.31V143.39H572.751V139.88C572.361 140.96 571.671 141.85 570.681 142.54C569.691 143.24 568.501 143.58 567.111 143.58C565.871 143.58 564.761 143.3 563.781 142.73C562.811 142.17 562.051 141.36 561.501 140.33C560.951 139.29 560.681 138.08 560.681 136.71C560.681 135.34 560.951 134.13 561.501 133.1V133.09ZM572.021 133.62C571.541 132.73 570.881 132.04 570.041 131.56C569.211 131.08 568.271 130.84 567.241 130.84C566.211 130.84 565.211 131.07 564.391 131.54C563.571 132.01 562.931 132.68 562.481 133.56C562.021 134.44 561.791 135.49 561.791 136.7C561.791 137.91 562.021 138.96 562.481 139.84C562.941 140.72 563.581 141.4 564.411 141.88C565.241 142.35 566.181 142.59 567.241 142.59C568.301 142.59 569.211 142.35 570.051 141.87C570.891 141.39 571.551 140.7 572.031 139.81C572.501 138.92 572.741 137.88 572.741 136.71C572.741 135.54 572.501 134.52 572.021 133.63V133.62Z" fill="#720E21"/>
<path d="M542.64 139.22C542.52 139.64 542.36 140.03 542.14 140.38C541.86 140.84 541.49 141.23 541.03 141.57C540.6 141.89 540.12 142.13 539.59 142.3C539.21 142.42 538.8 142.5 538.36 142.55C538.12 142.57 537.88 142.58 537.63 142.58C536.62 142.58 535.7 142.35 534.87 141.9C534.5 141.7 534.17 141.45 533.87 141.16L533.96 141.06L541.88 132.24L542.61 131.43C542.54 131.35 542.47 131.28 542.39 131.2C542.23 131.04 542.06 130.89 541.87 130.74C541.83 130.71 541.79 130.68 541.75 130.65C541.66 130.59 541.58 130.53 541.49 130.47C540.45 129.79 539.16 129.45 537.64 129.45C536.34 129.45 535.19 129.73 534.19 130.3C533.19 130.87 532.4 131.68 531.84 132.74C531.28 133.8 530.99 135.05 530.99 136.48C530.99 137.91 531.26 139.11 531.8 140.16C531.81 140.18 531.83 140.21 531.84 140.23C531.87 140.3 531.91 140.36 531.95 140.42C532.51 141.4 533.25 142.16 534.2 142.69C535.2 143.26 536.35 143.55 537.65 143.55C537.83 143.55 538 143.55 538.17 143.54C538.59 143.52 539 143.46 539.38 143.38C540.33 143.18 541.16 142.8 541.87 142.24C542.27 141.92 542.62 141.57 542.91 141.19C543.15 140.87 543.36 140.52 543.52 140.15L542.66 139.21L542.64 139.22ZM532.89 133.13C533.39 132.21 534.05 131.53 534.88 131.08C535.71 130.63 536.63 130.41 537.64 130.41C538.85 130.41 539.88 130.68 540.74 131.22C540.84 131.28 540.94 131.35 541.04 131.42C541.04 131.42 541.04 131.42 541.05 131.42L540.98 131.5L533.33 140.02L533.13 140.24C533.05 140.11 532.96 139.98 532.89 139.83C532.8 139.66 532.71 139.48 532.64 139.3C532.31 138.49 532.15 137.55 532.15 136.47C532.15 135.15 532.4 134.04 532.9 133.12L532.89 133.13Z" fill="#720E21"/>
</g>
<defs>
<clipPath id="clip0_2160_933">
<rect width="595.28" height="149.2" fill="white"/>
</clipPath>
</defs>
</svg>
