<svg width="539" height="439" viewBox="0 0 539 439" fill="none" xmlns="http://www.w3.org/2000/svg">
<path d="M532.783 205.684C528.333 180.514 523.583 155.374 513.043 131.824C504.123 111.884 490.423 89.9439 470.563 79.3039C463.333 75.4239 454.463 73.6039 446.443 75.9539C437.693 78.5139 431.353 84.4039 425.073 90.7739C417.283 98.6739 410.013 107.074 402.973 115.644C387.513 134.464 372.103 153.314 356.713 172.184C343.673 188.184 330.633 204.184 317.593 220.174C304.963 235.654 292.763 251.584 278.743 265.844C271.173 255.264 264.133 244.304 256.903 233.494C234.313 199.724 211.223 166.254 189.113 132.174C166.463 98.2839 143.883 64.3639 121.263 30.4639C116.023 22.6239 111.323 14.1839 103.803 8.25387C96.7035 2.65387 87.9635 -0.226131 78.9335 0.013869C63.8135 0.413869 49.9335 5.69387 38.5735 15.7539C29.1335 24.1039 21.9935 34.7939 16.4235 46.1039C12.6135 53.8439 9.50346 61.9139 7.06346 70.1839C6.85346 70.9039 6.64346 71.6339 6.44346 72.3539C-3.79654 108.894 -0.816543 147.524 8.28346 183.954C9.62346 189.324 11.1335 194.654 12.8035 199.924C22.6335 230.974 38.3535 259.894 58.5935 285.374C77.7935 309.544 100.463 334.334 131.063 343.304C155.713 350.524 182.133 346.234 207.353 341.334C214.773 339.894 221.783 339.304 227.323 345.164C261.253 381.054 300.123 409.794 347.173 426.224C367.683 433.394 388.783 438.464 410.643 438.354C424.473 438.284 438.283 436.054 451.283 431.274C463.623 426.734 475.083 419.924 485.233 411.584C513.713 388.174 530.953 352.994 535.653 316.724C540.403 280.034 539.233 242.094 532.793 205.694L532.783 205.684ZM103.853 293.924C75.2235 271.084 57.2235 241.244 45.4835 207.144C36.8935 182.214 32.8835 156.464 32.7735 130.144C32.7435 124.814 33.8035 119.274 35.4435 114.184C37.7535 107.024 44.1935 105.194 50.0635 110.014C54.1135 113.334 57.6135 117.474 60.7435 121.704C74.7035 140.584 88.4135 159.644 102.253 178.604C134.793 223.184 167.363 267.754 199.923 312.334C200.333 312.894 200.693 313.494 201.413 314.584C165.523 321.404 132.813 317.034 103.853 293.924ZM499.303 240.624C497.853 267.504 492.933 293.604 480.913 317.974C470.253 339.584 453.473 353.294 429.333 357.084C392.643 362.854 360.583 352.344 332.243 329.054C319.963 318.964 304.573 302.454 297.233 291.364C309.243 277.194 321.813 263.644 332.923 248.994C357.283 216.844 381.003 184.204 404.783 151.624C411.873 141.904 418.713 132.014 425.623 122.164C431.713 113.494 437.623 102.784 445.893 96.0239C450.613 92.1639 456.933 89.7739 462.873 91.1639C466.443 92.0039 469.603 94.1339 472.223 96.6939C480.123 104.384 483.443 115.514 486.113 126.214C495.463 163.534 501.373 202.074 499.293 240.624H499.303Z" fill="#172931"/>
</svg>
