<?xml version="1.0" encoding="UTF-8"?>
<svg id="Layer_1" xmlns="http://www.w3.org/2000/svg" version="1.1" xmlns:xlink="http://www.w3.org/1999/xlink" viewBox="0 0 595.28 529.52">
  <!-- Generator: Adobe Illustrator 30.1.0, SVG Export Plug-In . SVG Version: 2.1.1 Build 136)  -->
  <defs>
    <style>
      .st0 {
        fill: #e8e1d6;
      }

      .st1 {
        fill: #a88b58;
      }

      .st2 {
        fill: url(#linear-gradient);
      }
    </style>
    <linearGradient id="linear-gradient" x1="391.33" y1="519.49" x2="520.16" y2="-38.53" gradientUnits="userSpaceOnUse">
      <stop offset=".26" stop-color="#e8e1d6"/>
      <stop offset=".36" stop-color="#ded5c9"/>
      <stop offset=".56" stop-color="#c5b7a9"/>
      <stop offset=".58" stop-color="#c2b3a4"/>
    </linearGradient>
  </defs>
  <path class="st2" d="M549.42,311.82v.05c-18.97,99.8-97.1,178.69-196.53,198.74V208.14c0-.61.41-1.14,1.01-1.28,13.1-2.97,149.7-30.48,195.52,104.97Z"/>
  <path class="st0" d="M549.4,314.47v-.07c-48.14-142.33-196.53-106.31-196.53-106.31H59.01C85.59,98.05,184.72,16.32,302.93,16.32c138.59,0,250.93,112.34,250.93,250.93,0,16.16-1.51,31.92-4.46,47.22Z"/>
  <polygon class="st1" points="257.79 314.41 257.79 513.2 193.85 446.74 108.94 469.22 123.92 379.33 59 314.41 257.79 314.41"/>
</svg>